<svg id="레이어_1" data-name="레이어 1" xmlns="http://www.w3.org/2000/svg" viewBox="0 0 512 512"><defs><style>.cls-1{fill:#b29b72;}.cls-2{fill:#8c7c62;}.cls-3{fill:#8c8a88;}.cls-4{fill:#b7b5b2;}.cls-5{fill:#a6a852;}.cls-6{fill:#bac15d;}.cls-7{fill:#939345;}.cls-8{fill:#353432;}.cls-9{fill:#49443c;}.cls-10{fill:#7c6b49;}.cls-11{fill:#38342f;}</style></defs><title>대지 2</title><path class="cls-1" d="M408.08,512H22.52C3.35,512-7,491.94,5.42,478.91l50.76-53.17c11.92-12.48,29.36-19.67,47.74-19.67H489.48c19.18,0,29.55,20.07,17.1,33.11q-25.36,26.57-50.74,53.14C443.91,504.81,426.46,512,408.08,512Z"/><ellipse class="cls-2" cx="256" cy="457.61" rx="165.46" ry="29.38"/><path class="cls-3" d="M101.28,397.19c-2.21,2.94-6.16,8.19-4.47,12.35,1.88,4.59,9.49,5,19.77,5.67,10.1.61,15.72.92,18.54-2.89,3.44-4.63,0-12.33-.71-13.88-.47-1.05-5-10.74-14.59-11.83S103.6,394.1,101.28,397.19Z"/><path class="cls-4" d="M112.73,400.24c2.9,3.79,8,10.54,5.84,15.89-2.45,5.9-12.38,6.5-25.8,7.29-13.16.79-20.49,1.18-24.18-3.71-4.49-5.95,0-15.86.93-17.85.62-1.36,6.53-13.82,19-15.22C101.25,385.21,109.71,396.28,112.73,400.24Z"/><path class="cls-5" d="M376.2,389.76a2.18,2.18,0,0,1-4,.06,71.39,71.39,0,0,1-3.34-10.17,74.24,74.24,0,0,1-2.12-20.37,2.18,2.18,0,0,0-4-1.23c-2.75,4.37-5.55,9.12-8.31,14.25-3.44,6.4-6.39,12.56-8.9,18.36a2.17,2.17,0,0,1-3.79.36,76.45,76.45,0,0,1-6.73-12,83.22,83.22,0,0,1-6.31-21.54,2.18,2.18,0,0,0-4.15-.56,113.16,113.16,0,0,0-7.37,23.44,116.7,116.7,0,0,0-2,15.56,16.87,16.87,0,0,0,16.85,17.9l52.23.08A16.94,16.94,0,0,0,401,395.22c-.14-1.46-.25-3-.31-4.52a78,78,0,0,1,5.16-30.88,2.18,2.18,0,0,0-3.19-2.64,64.55,64.55,0,0,0-19.36,18.92A71.4,71.4,0,0,0,376.2,389.76Z"/><path class="cls-6" d="M457.86,406.2a71.22,71.22,0,0,1-5.63-15.13,75.16,75.16,0,0,1-2-22.48,1.61,1.61,0,0,0-2.95-1c-3.13,4.86-6.33,10.23-9.49,16.09-4.15,7.72-7.57,15.09-10.4,21.89a77.35,77.35,0,0,1-9-15.19,83.81,83.81,0,0,1-6.59-23.48,1.6,1.6,0,0,0-3-.47,113.71,113.71,0,0,0-8.21,25.29,117.75,117.75,0,0,0-2.27,23.6,9.89,9.89,0,0,0,9.88,9.85l67.53.1a9.86,9.86,0,0,0,9.75-11.64,76.22,76.22,0,0,1-1.32-11.55,78.25,78.25,0,0,1,5.78-32.47,1.59,1.59,0,0,0-2.28-2,64.28,64.28,0,0,0-20.89,19.85A72.2,72.2,0,0,0,457.86,406.2Z"/><path class="cls-7" d="M356.06,170.53c-12.1,4.68-24.66-3.53-41.42-14.84-16.43-11.09-45.66-30.81-41-47.5A18.05,18.05,0,0,1,286.93,96c14.07-2.71,19.91,17.9,47.78,34.78,20.22,12.24,34.2,11.73,35.63,20.92C371.47,159,364,167.47,356.06,170.53Z"/><path class="cls-8" d="M289,426c-9.61-2-16.53-2.54-26.1-6.78A39,39,0,0,1,252,412.33,41.53,41.53,0,0,1,244.06,402a68.92,68.92,0,0,1-7.74-19.1,66,66,0,0,1-1.53-7.59,74.49,74.49,0,0,1,.59-24.79,202.1,202.1,0,0,1-24,4.51c-6.27.79-12.18,1.24-17.68,1.44,6.06,11.83,22.27,21.8,26.56,31.79,4.71,11,8.15,20,6.37,29.94a29.48,29.48,0,0,1-2.4,8.31C218.78,437.9,213,443.2,214.28,445c1.12,1.55,6.49-1.29,16.5-4.23,0,0,1.41-.42,4.37-1.12,7.18,1.76,18.37,3.58,32.67,7.31,28,7.29,43.57,15.59,45.13,12.68,1.27-2.36-8-9.62-11.69-12.5a69.94,69.94,0,0,0-8.22-5.51,98.11,98.11,0,0,1,17.86,4.51c9.79,3.47,15.62,7.59,17.28,5.85,1.38-1.45-.86-6.16-3.14-9.39C317.67,432.19,304.13,429.19,289,426Z"/><path class="cls-9" d="M265.91,444.27c-9.6-2-16.53-2.54-26.1-6.78A38.62,38.62,0,0,1,229,430.58,41.89,41.89,0,0,1,221,420.29a76.88,76.88,0,0,1-9.28-26.69,74.82,74.82,0,0,1,.59-24.8,199.63,199.63,0,0,1-24,4.52c-6.27.79-12.18,1.23-17.67,1.44,6.06,11.82,22.26,21.8,26.55,31.78,4.72,11,8.15,20,6.38,29.95a29.22,29.22,0,0,1-2.41,8.3c-5.45,11.35-11.26,16.66-9.94,18.49,1.11,1.55,6.49-1.3,16.49-4.24,0,0,1.41-.41,4.38-1.11,7.18,1.76,18.37,3.57,32.66,7.3,28,7.29,43.57,15.59,45.14,12.69,1.27-2.36-8-9.62-11.69-12.5a70.86,70.86,0,0,0-8.22-5.51,98.71,98.71,0,0,1,17.85,4.5c9.8,3.48,15.62,7.6,17.28,5.86,1.38-1.45-.85-6.16-3.13-9.39C294.62,450.44,281.07,447.43,265.91,444.27Z"/><path class="cls-10" d="M376.48.14C349-1.49,328.48,11.67,320.37,17c-45.81,30.24-35.36,72.07-80,97.58-12.88,7.36-9.52,1.46-45.17,15.62-22.48,8.92-47.85,19.16-75.33,38C97.19,183.74,99.56,187,76.59,201.66c-31.13,19.9-39.79,16.71-46.7,27.1C12.48,254.92,41.77,313.61,80.26,347.4c56.36,49.47,128.65,42.2,140.15,40.86,82.21-9.57,129.67-71.2,137.86-82.27C400,249.6,368.63,227.39,418,147c13.9-22.6,34-49.47,29.27-83.2-1.2-8.6-5.17-26.07-19.45-41.08C408.51,2.41,383.32.54,376.48.14Z"/><circle class="cls-11" cx="384.67" cy="71.52" r="9.66"/><ellipse class="cls-11" cx="439.07" cy="64.66" rx="9.66" ry="6.71" transform="translate(347.5 498.92) rotate(-86.47)"/><path class="cls-9" d="M492.14,131.26c2.8-2.42-12.66-24.12-15.63-28.28-1.68-2.35-14.78-20.07-38.26-37.48-10.42-7.73-15.83-10.16-21.2-8.73-5.55,1.47-11.47,7.17-11.48,13,0,10.89,20.35,13.43,50.37,34C478.58,119.4,489.85,133.24,492.14,131.26Z"/><path class="cls-6" d="M363.28,163.77c-2.86-1.84-10.6-8.32-26.06-21.29-33.14-27.79-55.55-58.54-74.2-72.1C208.29,30.58,84,64.7,54.23,133.06c-12.92,29.71-8.76,71.23,5.94,77.42C68.41,214,76,204.66,96,195.77c27.28-12.16,51.49-11.94,72.88-11.75,39.48.35,41.31,13.83,95.67,25.61,9.7,2.1,89.64,18.71,117.57-9.61,2.3-2.33,8.61-8.76,7.5-15.78C388.32,176.07,378.15,173.35,363.28,163.77Z"/><path class="cls-7" d="M378.31,163.46c7.54,2.21,14.06,7.64,16.53,9.7A54.18,54.18,0,0,1,406,186c.14.22,2.63,4.49,3.18,6.85,1.86,7.89-12.38,18-13.82,19-21.5,15-48.22,10.75-56.41,9.47-9.27-1.46-21.06-3.46-31.24-12.63C299.21,201,294.12,190.35,296,188.6c1.64-1.51,5.91,3.78,12.95,3.36,6.71-.39,11.22-5.69,14-8.53C335.92,170,360.84,158.36,378.31,163.46Z"/><path class="cls-7" d="M404.36,193c0,1.16.35,4.21,7.29,11.47,5.4,5.65,8.09,8.49,10.79,9,7.53,1.55,14.55-6.25,20.09-12.4,2.32-2.57,6.71-8,6.91-14.59.09-3.2-.88-4-1.24-4.18-1.89-1.15-4.45,2.17-7.6,1.7s-4.24-4.34-6.56-7.72c-5.36-7.78-17-12.39-21.55-9.42-3.53,2.3-.08,7.4-4.88,17.84C405.68,189,404.27,190.07,404.36,193Z"/><path class="cls-5" d="M390.27,219c-3.52-3.2,1.35-8.82,3.51-28.55.9-8.27,1.42-19.57,4.59-20.14,1.46-.25,2.71,1.84,4.88,1.29,1.83-.46,2.07-2.19,3.29-2.69,2.87-1.16,9.93,5.1,12.86,12.64,4.06,10.44.72,24.67-9,32.5C404.42,218.76,394.28,222.62,390.27,219Z"/></svg>