<svg id="레이어_1" data-name="레이어 1" xmlns="http://www.w3.org/2000/svg" viewBox="0 0 512 512"><defs><style>.cls-1{fill:#b29b72;}.cls-2{fill:#8c7c62;}.cls-3{fill:#8c8a88;}.cls-4{fill:#b7b5b2;}.cls-5{fill:#a6a852;}.cls-6{fill:#bac15d;}.cls-7{fill:#939345;}.cls-8{fill:#353432;}.cls-9{fill:#49443c;}.cls-10{fill:#7c6b49;}.cls-11{fill:#38342f;}</style></defs><title>대지 2</title><path class="cls-1" d="M408.08,512H22.52C3.35,512-7,491.94,5.42,478.91l50.76-53.17c11.92-12.48,29.36-19.67,47.74-19.67H489.48c19.18,0,29.55,20.07,17.1,33.11q-25.36,26.57-50.74,53.14C443.91,504.81,426.46,512,408.08,512Z"/><ellipse class="cls-2" cx="256" cy="455.61" rx="165.46" ry="29.38"/><path class="cls-3" d="M101.28,397.19c-2.21,2.94-6.16,8.19-4.47,12.35,1.88,4.59,9.49,5,19.77,5.67,10.1.61,15.72.92,18.54-2.89,3.44-4.63,0-12.33-.71-13.88-.47-1.05-5-10.74-14.59-11.83S103.6,394.1,101.28,397.19Z"/><path class="cls-4" d="M112.73,400.24c2.9,3.79,8,10.54,5.84,15.89-2.45,5.9-12.38,6.5-25.8,7.29-13.16.79-20.49,1.18-24.18-3.71-4.49-5.95,0-15.86.93-17.85.62-1.36,6.53-13.82,19-15.22C101.25,385.21,109.71,396.28,112.73,400.24Z"/><path class="cls-5" d="M376.2,389.76a2.18,2.18,0,0,1-4,.06,71.39,71.39,0,0,1-3.34-10.17,74.24,74.24,0,0,1-2.12-20.37,2.18,2.18,0,0,0-4-1.23c-2.75,4.37-5.55,9.12-8.31,14.25-3.44,6.4-6.39,12.56-8.9,18.36a2.17,2.17,0,0,1-3.79.36,76.45,76.45,0,0,1-6.73-12,83.22,83.22,0,0,1-6.31-21.54,2.18,2.18,0,0,0-4.15-.56,113.16,113.16,0,0,0-7.37,23.44,116.7,116.7,0,0,0-2,15.56,16.87,16.87,0,0,0,16.85,17.9l52.23.08A16.94,16.94,0,0,0,401,395.22c-.14-1.46-.25-3-.31-4.52a78,78,0,0,1,5.16-30.88,2.18,2.18,0,0,0-3.19-2.64,64.55,64.55,0,0,0-19.36,18.92A71.4,71.4,0,0,0,376.2,389.76Z"/><path class="cls-6" d="M457.86,406.2a71.22,71.22,0,0,1-5.63-15.13,75.16,75.16,0,0,1-2-22.48,1.61,1.61,0,0,0-2.95-1c-3.13,4.86-6.33,10.23-9.49,16.09-4.15,7.72-7.57,15.09-10.4,21.89a77.35,77.35,0,0,1-9-15.19,83.81,83.81,0,0,1-6.59-23.48,1.6,1.6,0,0,0-3-.47,113.71,113.71,0,0,0-8.21,25.29,117.75,117.75,0,0,0-2.27,23.6,9.89,9.89,0,0,0,9.88,9.85l67.53.1a9.86,9.86,0,0,0,9.75-11.64,76.22,76.22,0,0,1-1.32-11.55,78.25,78.25,0,0,1,5.78-32.47,1.59,1.59,0,0,0-2.28-2,64.28,64.28,0,0,0-20.89,19.85A72.2,72.2,0,0,0,457.86,406.2Z"/><path class="cls-7" d="M357.61,173.88c-12,4.63-24.38-3.48-41-14.67-16.25-11-45.15-30.46-40.53-47a17.84,17.84,0,0,1,13.14-12c13.9-2.68,19.68,17.7,47.24,34.38,20,12.11,33.81,11.6,35.22,20.69C372.84,162.5,365.41,170.86,357.61,173.88Z"/><path class="cls-8" d="M291.27,426.49c-9.5-2-16.34-2.51-25.81-6.7A38.35,38.35,0,0,1,254.72,413a41.48,41.48,0,0,1-7.85-10.17,68.4,68.4,0,0,1-7.65-18.88,67.7,67.7,0,0,1-1.52-7.51,73.62,73.62,0,0,1,.59-24.51,200.33,200.33,0,0,1-23.73,4.46c-6.2.78-12.05,1.22-17.48,1.42,6,11.7,22,21.56,26.26,31.43,4.66,10.85,8,19.76,6.3,29.6a29.2,29.2,0,0,1-2.38,8.22c-5.38,11.22-11.14,16.46-9.83,18.27,1.1,1.53,6.42-1.28,16.31-4.18,0,0,1.39-.41,4.32-1.11,7.1,1.74,18.16,3.54,32.3,7.22,27.65,7.21,43.08,15.42,44.63,12.54,1.25-2.32-7.92-9.5-11.56-12.35A70.25,70.25,0,0,0,295.3,442,96.89,96.89,0,0,1,313,446.41c9.68,3.43,15.45,7.51,17.09,5.78,1.36-1.43-.85-6.09-3.1-9.28C319.65,432.59,306.26,429.62,291.27,426.49Z"/><path class="cls-9" d="M268.48,444.53c-9.5-2-16.35-2.51-25.81-6.7A38.35,38.35,0,0,1,231.93,431a41.18,41.18,0,0,1-7.85-10.17,68.07,68.07,0,0,1-7.65-18.88,65.48,65.48,0,0,1-1.52-7.51,73.93,73.93,0,0,1,.58-24.51,199.94,199.94,0,0,1-23.73,4.46c-6.19.78-12,1.22-17.47,1.42,6,11.7,22,21.56,26.25,31.43,4.67,10.85,8.06,19.75,6.31,29.6a29,29,0,0,1-2.38,8.21c-5.39,11.23-11.14,16.47-9.84,18.28,1.11,1.53,6.42-1.28,16.31-4.18,0,0,1.4-.41,4.33-1.11,7.1,1.74,18.16,3.54,32.3,7.22,27.64,7.21,43.07,15.42,44.62,12.54,1.26-2.33-7.92-9.5-11.56-12.35A69.33,69.33,0,0,0,272.5,460a97.62,97.62,0,0,1,17.66,4.45c9.68,3.44,15.44,7.51,17.08,5.79,1.37-1.43-.84-6.09-3.1-9.28C296.85,450.63,283.46,447.66,268.48,444.53Z"/><path class="cls-10" d="M376.17.08A68.41,68.41,0,0,0,314,88.38c3.54,11.6,8.59,15.91,12.68,23.53,8.15,15.16,8.85,35.79,2.16,50.83-7.61,17.12-23.9,24.82-30.47,27.83-37.58,17.17-64.36-6.7-108-7.11C142.59,183,81.14,210.72,70,253.36c-12.84,49.14,47.11,97.22,55.4,103.91,5.48,4.42,54.93,43.38,98.09,31.88,8-2.13,23.51-8.06,35.82-13.37a367.6,367.6,0,0,0,33.07-16.21c21.84-12.43,61.91-48.15,75.31-99.74,9.57-36.78,1.61-65,26.41-106.87,1.41-2.38,2.91-4.65,2.91-4.65a105.39,105.39,0,0,1,24.24-26.57c16.41-13,26.56-32.52,26.56-53.36A68.38,68.38,0,0,0,376.17.08Z"/><circle class="cls-11" cx="382.92" cy="75.99" r="9.55"/><ellipse class="cls-11" cx="440.67" cy="69.22" rx="9.55" ry="6.64" transform="translate(344.46 504.79) rotate(-86.47)"/><path class="cls-9" d="M477.18,124.49c4.39-3.86-8.43-25.35-19.32-38.67C450,76.24,439.5,63.72,426,64.17c-2,.07-9,.3-13.37,5.55a15.84,15.84,0,0,0-3.11,12.79c1.89,9.19,12.85,12.29,29.67,20.82C466.15,117,474,127.28,477.18,124.49Z"/><path class="cls-6" d="M364.74,169.18c-6.46-4.15-12.9-9.78-25.77-21.05-23.24-20.34-29.52-38-38.8-47-37.49-36.32-158.26-19.64-198.4,47.6-15.39,25.79-20.32,61.55-11.38,66.7,5.11,3,12.6-5.33,31-14.29,0,0,19-9.28,52.73-15.08,53.45-9.21,91.12,27.28,163.72,31.62,9.13.54,31.7,1.35,45.55-12.64,2.24-2.26,8.52-8.61,7.41-15.61C389.5,181.34,379.45,178.65,364.74,169.18Z"/><path class="cls-7" d="M357.81,165.55c7.62,1.51,14.51,6.29,17.13,8.11a53.43,53.43,0,0,1,12.15,11.68c3.33,4.24,3.64,5.83,3.73,6.47.9,6.2-5.93,12-9,14.45-26.13,21.49-72,15.31-76.38,14.67a34,34,0,0,1-13.2-4.66c-9.66-6-15.25-16.63-13.32-18.76,1.48-1.63,6.15,3.2,13.05,2.18,6.57-1,10.55-6.59,13-9.63C316.63,175.69,340.15,162.05,357.81,165.55Z"/><path class="cls-7" d="M386.05,192.4c.14,1.14.72,4.11,8.19,10.65,5.81,5.1,8.7,7.66,11.41,8,7.56.86,13.78-7.43,18.7-14,2.06-2.73,5.91-8.45,5.53-15-.19-3.16-1.21-3.83-1.58-4-2-1-4.2,2.52-7.35,2.34s-4.55-3.9-7.13-7c-6-7.19-17.81-10.72-22.05-7.39-3.27,2.57.57,7.29-3.24,18C387,188.27,385.7,189.49,386.05,192.4Z"/><path class="cls-5" d="M370.37,222c-3.86-3.52,4.17-11.21,5-31.22.34-7.86-.33-19.39,2.76-20.23,1.41-.38,2.83,1.58,4.92.84,1.82-.63,1.83-2.48,3-2.93,2.56-1,9.05,5.75,12,13.76.42,1.13,6.26,17.79-4.3,30.36C386.92,220.69,374.41,225.62,370.37,222Z"/></svg>