<svg id="레이어_1" data-name="레이어 1" xmlns="http://www.w3.org/2000/svg" viewBox="0 0 512 512"><defs><style>.cls-1{fill:#7c6b49;}.cls-2{fill:#bac15d;}.cls-3{fill:#a6a852;}.cls-4{fill:#d3d171;}.cls-5{fill:#49443c;}.cls-6{fill:#38342f;}</style></defs><title>대지 1</title><circle class="cls-1" cx="256" cy="256" r="256"/><circle class="cls-2" cx="256" cy="256" r="219.87"/><circle class="cls-3" cx="254.36" cy="253.38" r="147.11"/><circle class="cls-4" cx="254.36" cy="253.38" r="106.16"/><path class="cls-5" d="M286.29,97.1c12.27,13.41-6.57,57.23-18.77,56.33s-24.58-47-10.38-58.5c3.27-2.64,9.53-4.72,15.91-4C278.6,91.57,283.7,94.28,286.29,97.1Z"/><path class="cls-1" d="M351,138.3c3.92,17.75-34.3,46.27-44.42,39.4s2.22-53,20.25-55.85c4.15-.66,10.62.67,15.78,4.49C347.14,129.67,350.2,134.56,351,138.3Z"/><path class="cls-1" d="M212.56,111.63c17.33,5.47,22.92,52.84,11.91,58.16s-44.81-28.43-38.25-45.47c1.51-3.92,5.89-8.85,11.78-11.41C203.13,110.68,208.9,110.47,212.56,111.63Z"/><path class="cls-5" d="M397.63,194.22c-5.47,17.33-52.84,22.92-58.16,11.91s28.43-44.81,45.47-38.25c3.92,1.51,8.85,5.89,11.41,11.78C398.58,184.79,398.79,190.56,397.63,194.22Z"/><path class="cls-1" d="M431.9,325.07c-1.78-19.09-17.66-32.82-40-52.13-11-9.47-21.75-18.8-38.62-26.74-45.05-21.22-90.7-10.52-97.06-9-34.56,8.45-49.36,25.65-60,17.87-10.89-8,2.65-27.57-10.09-54.48-1.66-3.52-13.35-27.25-39.71-35.37a63.19,63.19,0,0,0-37,.22A72.59,72.59,0,0,0,82.7,182.31c-35.3,36.09-13.21,114-10.84,122a199.12,199.12,0,0,0,40,72.83C122,389,155,426.19,212.87,440.74c14,3.51,60.9,14.62,114.06-6.42,37.25-14.74,58.72-37.77,72.12-52.12C419.27,360.53,433.75,345,431.9,325.07Z"/><circle class="cls-6" cx="100.99" cy="198.74" r="8.36"/><ellipse class="cls-6" cx="160.64" cy="183.36" rx="6.73" ry="8.36" transform="translate(-82.6 167.29) rotate(-45)"/><path class="cls-5" d="M160.38,104.73c-4.72-2.22-23.55,32.63-30,45.32-9.87,19.34-13.7,31.64-9,40.64.84,1.61,3.69,7.09,9.35,8.57S141.21,197.5,142,197c9-6,6.62-21.25,7.68-39.48C151.62,124,163.84,106.35,160.38,104.73Z"/><path class="cls-5" d="M312.94,213.81c-.92.9-1.07,2.63-.5,4.7a13,13,0,0,0,2.93,5.23l29.37,32.93a2.72,2.72,0,0,1,.74,2.65c-.44,1.37-3.33,1.19-4.36,1.15-8.59-.36-20.73-13.83-36.37-17.6-1-.25-10.69-2.51-12.24.45s5.57,9.39,6.69,10.39c11.92,10.69,29.55,13.62,34.64,20.49.61.83,2.38,3.12,1.49,4.25a2.67,2.67,0,0,1-2.61.87l-43.6-5.82A13.36,13.36,0,0,0,283,274c-2,.7-3.37,1.76-3.6,3-.11.62,0,1.83,3.55,5.21l.07.05a28.32,28.32,0,0,0,16.76,7.45l67.09,6.18c5.76.45,10.74-1.9,13-6.13s1.4-9.68-2.2-14.19l-42.81-51.71a30,30,0,0,0-14.47-9.72l-.76-.22C316.74,213.19,314.24,212.53,312.94,213.81Z"/><path class="cls-5" d="M275.86,345.36c-.07,1.34,1,2.75,2.92,3.93a13.42,13.42,0,0,0,5.91,1.9l45.46,4.37a2.82,2.82,0,0,1,2.43,1.48c.62,1.36-1.7,3.26-2.51,3.95-6.77,5.76-25.47,4.07-40,12.2-.95.53-9.89,5.61-9,8.95s10.84,3.22,12.39,3.19c16.57-.26,32-10.44,40.72-8.8,1,.2,4,.7,4.12,2.18a2.79,2.79,0,0,1-1.37,2.5l-37.21,26.24a14,14,0,0,0-4.28,4.7c-1,2-1.32,3.71-.61,4.83.36.55,1.25,1.42,6.36,1.46h.09a29.35,29.35,0,0,0,18-6.14l55.3-42.48c4.7-3.71,6.82-9,5.55-13.79s-5.74-8.33-11.65-9.23l-68.87-9.17a31.2,31.2,0,0,0-17.83,2.79l-.73.37C278.31,342.21,276,343.48,275.86,345.36Z"/></svg>