<svg id="레이어_1" data-name="레이어 1" xmlns="http://www.w3.org/2000/svg" viewBox="0 0 16 16"><title>대지 1</title><path id="master-icon" d="M11.57,12.83c-.33-.91,1.14-1.59,1.68-3.94a6.38,6.38,0,0,0-.4-4.25c0-.09-.11-.23-.21-.41-.88,1.37-1.53,2.51-2.58,2.53a1.77,1.77,0,0,1-1.27-.47,1.84,1.84,0,0,1-.42-1.42c.05-.93.77-1.74,2.15-2.68C8.14,1,5.38,2,4.86,2.21A8.89,8.89,0,0,0,0,7.05v9H16V14C12.72,14,11.78,13.42,11.57,12.83Zm.7-7.55c.38-.09.68.22.8.69a.79.79,0,0,1-.48,1c-.37.1-.68-.21-.79-.68A.81.81,0,0,1,12.27,5.28ZM7.74,4.64a.87.87,0,1,1-.26-1.07A.88.88,0,0,1,7.74,4.64Zm3.72-2.5c1.1-.68,4.22-2.48,4.48-2.08s-1.6,1.07-3.34,3.57C11.65,5,11.11,6.29,10.13,6.32a1.26,1.26,0,0,1-1-.36,1.44,1.44,0,0,1-.32-1.1C8.9,3.94,9.78,3.17,11.46,2.14Z"/></svg>